<?xml version="1.0" standalone="no"?>
<!DOCTYPE svg PUBLIC "-//W3C//DTD SVG 20010904//EN"
 "http://www.w3.org/TR/2001/REC-SVG-20010904/DTD/svg10.dtd">
<svg version="1.0" xmlns="http://www.w3.org/2000/svg"
 width="512.000000pt" height="512.000000pt" viewBox="0 0 512.000000 512.000000"
 preserveAspectRatio="xMidYMid meet">
<metadata>
Created by potrace 1.14, written by Peter Selinger 2001-2017
</metadata>
<g transform="translate(0.000000,512.000000) scale(0.100000,-0.100000)"
fill="#000000" stroke="none">
<path d="M2052 5100 c-13 -31 -73 -171 -100 -230 -11 -25 -32 -74 -47 -110
-15 -36 -36 -84 -46 -107 -11 -24 -27 -62 -38 -85 -10 -24 -123 -284 -250
-578 -128 -294 -236 -544 -241 -555 -5 -11 -84 -193 -176 -405 -91 -212 -174
-403 -184 -425 -10 -22 -54 -125 -99 -230 -46 -104 -89 -204 -97 -221 -26 -57
-186 -428 -215 -499 -17 -38 -34 -77 -38 -86 -5 -8 -35 -76 -66 -150 -32 -74
-68 -156 -80 -184 -12 -27 -44 -99 -70 -160 -107 -250 -163 -376 -175 -395
-108 -168 -126 -240 -125 -505 l0 -170 2558 -2 2558 -1 -2 281 c-1 317 -8 364
-71 478 -20 35 -82 154 -138 264 -57 110 -122 236 -145 280 -23 44 -93 179
-155 300 -62 121 -138 270 -170 330 -31 61 -101 196 -155 300 -54 105 -112
217 -130 250 -18 33 -83 159 -145 280 -63 121 -154 299 -204 395 -51 96 -107
205 -126 242 -19 37 -38 64 -41 60 -3 -4 -68 -144 -144 -312 -76 -168 -155
-343 -177 -390 -22 -47 -49 -107 -61 -135 -11 -27 -26 -58 -33 -69 -12 -17
-14 -16 -27 15 -18 41 -209 473 -244 549 -14 30 -43 96 -64 145 -22 50 -44 99
-49 110 -5 11 -75 169 -156 350 -150 338 -567 1275 -603 1355 -19 43 -20 44
-29 20z"/>
</g>
</svg>
