<?xml version="1.0" standalone="no"?>
<!DOCTYPE svg PUBLIC "-//W3C//DTD SVG 20010904//EN"
 "http://www.w3.org/TR/2001/REC-SVG-20010904/DTD/svg10.dtd">
<svg version="1.0" xmlns="http://www.w3.org/2000/svg"
 width="500.000000pt" height="500.000000pt" viewBox="0 0 500.000000 500.000000"
 preserveAspectRatio="xMidYMid meet">

<g transform="translate(0.000000,500.000000) scale(0.100000,-0.100000)"
fill="#000000" stroke="none">
<path d="M3350 4404 c-128 -19 -205 -51 -256 -106 -76 -81 -195 -333 -383
-808 -99 -252 -139 -303 -197 -249 -13 12 -55 85 -94 163 -107 214 -284 440
-546 696 -197 193 -244 222 -383 241 -97 13 -213 -1 -287 -35 -68 -31 -95 -80
-102 -182 -7 -109 18 -152 279 -480 70 -89 234 -302 364 -474 253 -335 368
-480 453 -573 30 -32 62 -77 72 -99 l18 -40 -48 -142 c-26 -77 -89 -257 -138
-398 -150 -424 -166 -484 -167 -613 l-1 -110 -63 -137 c-78 -173 -82 -195 -46
-248 21 -31 26 -46 20 -67 -25 -99 -4 -187 57 -238 34 -29 55 -31 86 -9 20 14
110 126 154 193 24 35 23 92 -3 152 -12 27 -19 52 -16 56 3 3 25 -9 49 -26 45
-33 95 -41 104 -16 4 8 -3 33 -15 55 -26 50 -26 61 -1 107 25 47 25 60 0 130
-11 32 -20 59 -20 61 0 3 12 2 26 -1 46 -8 92 12 153 69 96 89 148 186 111
209 -21 13 -9 25 25 25 45 0 55 16 104 161 97 291 129 295 419 62 194 -156
364 -261 578 -357 200 -90 354 -136 460 -136 106 0 154 30 114 70 -14 14 -28
18 -45 14 -30 -7 -31 0 -5 33 24 31 25 52 5 101 -21 50 -71 100 -185 185 -52
39 -169 143 -259 231 -210 207 -641 656 -641 669 0 14 228 607 307 797 98 235
184 403 279 541 84 121 85 125 81 174 -8 101 -119 270 -207 315 -33 17 -148
42 -175 39 -5 -1 -21 -3 -35 -5z"/>
</g>
</svg>
