<?xml version="1.0" standalone="no"?>
<!DOCTYPE svg PUBLIC "-//W3C//DTD SVG 20010904//EN"
 "http://www.w3.org/TR/2001/REC-SVG-20010904/DTD/svg10.dtd">
<svg version="1.0" xmlns="http://www.w3.org/2000/svg"
 width="1441.000000pt" height="1757.000000pt" viewBox="0 0 1441.000000 1757.000000"
 preserveAspectRatio="xMidYMid meet">

<g transform="translate(0.000000,1757.000000) scale(0.100000,-0.100000)"
fill="#000000" stroke="none">
<path d="M7040 14344 c-14 -2 -59 -6 -100 -9 l-75 -6 -33 -62 c-43 -82 -147
-227 -221 -307 l-61 -65 57 85 c57 87 180 326 171 335 -5 6 -166 -20 -259 -41
l-66 -15 -17 -78 c-19 -92 -76 -212 -140 -298 -25 -35 -47 -63 -49 -63 -1 0
21 48 50 106 52 106 83 211 83 278 0 20 -4 36 -10 36 -5 0 -72 -20 -147 -45
-171 -56 -390 -163 -506 -246 -90 -64 -257 -229 -257 -254 0 -30 338 -148 601
-209 283 -66 542 -102 898 -127 170 -12 861 -6 991 9 l65 7 3 380 2 379 -22
-30 c-41 -55 -111 -134 -115 -130 -2 2 17 38 42 80 74 126 95 173 95 215 0 34
-4 41 -22 45 -70 16 -228 28 -413 33 l-210 5 -29 -54 c-30 -56 -146 -238 -151
-238 -2 0 23 55 55 123 32 67 61 132 65 145 l6 22 -128 -1 c-70 -1 -139 -3
-153 -5z"/>
<path d="M9546 12552 l-17 -38 67 -144 c37 -80 68 -147 70 -149 4 -4 113 57
207 115 l69 42 -84 49 c-124 73 -284 163 -290 163 -3 0 -13 -17 -22 -38z"/>
<path d="M10091 12209 c-35 -23 -113 -67 -173 -99 l-110 -58 38 -12 c235 -75
595 -248 779 -374 33 -22 72 -48 87 -56 43 -24 183 -148 230 -203 117 -138
194 -275 222 -397 67 -284 -70 -634 -351 -900 -189 -180 -440 -339 -733 -468
-74 -32 -144 -62 -155 -66 -15 -6 15 -20 120 -57 415 -146 576 -297 450 -423
-83 -83 -280 -80 -608 10 -71 19 -135 38 -143 41 -9 3 -14 -2 -14 -16 0 -12
-2 -21 -4 -21 -13 0 -188 62 -382 135 l-227 86 -126 -25 c-1137 -226 -2461
-200 -3536 70 -208 52 -541 161 -699 229 -111 47 -281 131 -414 205 -215 118
-427 297 -551 464 -137 182 -221 429 -209 614 l3 53 -590 339 c-324 187 -596
340 -602 340 -22 0 -458 -241 -586 -323 -67 -43 -76 -52 -60 -60 10 -6 605
-348 1323 -760 1150 -661 1314 -758 1380 -818 193 -175 413 -302 761 -439 133
-52 314 -154 1925 -1080 979 -562 1794 -1031 1811 -1042 l33 -19 -73 -58
c-333 -267 -583 -667 -673 -1081 -29 -129 -26 -464 4 -572 74 -268 185 -430
432 -631 l35 -28 -50 27 c-27 15 -55 32 -62 36 -8 6 -68 -23 -179 -87 -92 -54
-173 -98 -181 -99 -8 -1 -40 -15 -71 -31 -31 -16 -73 -36 -92 -46 -19 -9 -66
-34 -105 -54 -38 -20 -77 -38 -86 -40 -8 -2 -53 -25 -100 -53 -46 -27 -129
-71 -184 -98 -55 -26 -117 -58 -137 -71 -21 -13 -42 -23 -47 -23 -6 0 -34 -14
-63 -32 -29 -17 -114 -62 -188 -100 l-134 -68 -21 -56 -20 -57 -297 -171
c-163 -94 -295 -172 -294 -173 3 -3 566 170 1051 324 340 107 1269 398 2280
713 429 134 783 246 788 250 4 4 11 78 15 166 l7 159 52 -100 c48 -91 52 -97
53 -65 0 19 5 132 11 250 9 203 11 216 32 232 22 17 22 16 54 -45 l32 -62 1
80 1 80 407 233 c622 356 1039 597 1054 609 10 9 1310 759 2046 1181 l132 76
0 127 0 126 -384 221 c-212 122 -387 222 -389 222 -11 0 18 -100 44 -157 51
-108 167 -182 265 -171 19 2 34 2 34 -2 0 -3 -42 -28 -93 -56 -202 -113 -3387
-1891 -4062 -2269 -396 -221 -748 -416 -782 -434 -96 -48 -205 -74 -283 -68
-90 6 -117 21 -147 81 -87 171 -118 338 -101 537 20 240 102 468 246 689 69
105 287 325 392 397 112 75 956 532 3620 1956 432 230 956 511 1165 623 l380
204 -8 127 c-5 71 -10 128 -11 129 0 0 -829 477 -1841 1059 -1012 581 -1941
1115 -2064 1186 -123 71 -227 129 -230 129 -3 0 -35 -19 -70 -41z m1156 -3399
c106 -228 193 -417 193 -420 0 -7 -199 -112 -1323 -702 l-457 -240 -243 139
c-1628 936 -2097 1206 -2093 1210 2 2 89 -1 192 -8 241 -16 940 -16 1194 0
372 22 764 64 1051 111 l125 21 116 -35 c228 -69 461 -101 668 -93 156 6 249
30 299 76 67 62 27 158 -99 243 -20 12 -36 28 -37 33 -1 11 183 84 207 81 9
-1 88 -160 207 -416z"/>
<path d="M6216 11030 c34 -66 155 -191 239 -247 125 -84 294 -158 485 -212
180 -50 165 -52 188 18 l20 60 -36 6 c-387 64 -666 182 -856 364 l-69 66 29
-55z"/>
<path d="M5756 10297 c-18 -92 51 -203 188 -304 63 -46 67 -46 80 9 6 25 1 29
-54 59 -118 63 -186 140 -199 227 l-7 47 -8 -38z"/>
<path d="M10109 9283 c-40 -111 -44 -129 -30 -137 8 -5 65 -10 126 -10 87 -1
117 3 142 17 61 33 51 93 -27 160 -33 28 -147 97 -161 97 -2 0 -25 -57 -50
-127z"/>
<path d="M1458 8849 c-25 -14 -23 -63 3 -109 19 -34 123 -97 1088 -656 586
-340 1145 -664 1241 -720 96 -55 474 -274 840 -486 366 -212 726 -420 800
-463 74 -43 137 -81 140 -86 5 -7 617 -362 773 -448 162 -89 342 -243 464
-398 64 -80 86 -92 96 -54 2 10 30 32 61 49 42 24 56 38 56 55 0 16 14 29 51
50 47 26 50 29 33 41 -44 30 -1319 768 -1379 797 -16 9 -118 66 -225 128 -308
179 -1290 746 -2965 1711 -528 305 -978 564 -1000 577 -45 26 -53 27 -77 12z"/>
<path d="M410 6494 c-206 -119 -378 -219 -382 -223 -5 -4 252 -168 569 -364
l577 -357 56 55 56 55 363 -335 c199 -184 366 -335 370 -335 4 0 11 4 17 10 6
6 250 -139 714 -426 1615 -998 2282 -1406 2318 -1416 111 -31 258 27 381 151
42 43 85 92 95 111 19 33 19 33 0 25 -10 -5 -54 -11 -97 -13 -128 -6 -191 21
-541 232 -2011 1215 -2583 1561 -2594 1571 -11 10 12 33 114 115 156 127 375
285 523 376 61 38 111 72 111 75 0 4 -201 133 -447 288 l-446 282 -86 -58
c-188 -127 -478 -354 -613 -481 -32 -29 -61 -51 -65 -49 -102 59 -952 573
-960 581 -9 8 3 11 46 12 133 2 239 105 284 277 8 31 14 57 14 57 -1 0 -171
-97 -377 -216z"/>
<path d="M13250 5533 c-85 -52 -220 -134 -300 -182 -80 -48 -671 -407 -1315
-796 -643 -389 -1417 -857 -1720 -1040 -994 -600 -1299 -786 -1365 -833 -88
-62 -282 -259 -353 -358 -159 -225 -270 -476 -329 -746 -20 -90 -22 -132 -22
-333 0 -216 2 -236 26 -325 58 -212 136 -366 262 -511 220 -256 501 -384 706
-323 75 22 216 114 2295 1494 2307 1532 2545 1691 2545 1703 0 27 -22 242 -25
245 -3 4 -17 -6 -1370 -898 -878 -579 -1932 -1272 -2545 -1673 -151 -99 -353
-231 -448 -294 -95 -62 -175 -113 -177 -113 -3 0 -6 94 -7 208 l-3 208 -190
-123 c-301 -196 -373 -227 -510 -222 -65 3 -88 8 -105 24 -33 29 -117 208
-140 301 -91 354 -5 796 221 1134 73 109 212 257 312 333 94 72 904 577 2982
1859 352 217 843 520 1090 673 248 153 503 310 568 349 l118 71 -6 55 c-10
105 -27 210 -34 209 -3 0 -76 -43 -161 -96z"/>
</g>
</svg>
