<?xml version="1.0" standalone="no"?>
<!DOCTYPE svg PUBLIC "-//W3C//DTD SVG 20010904//EN"
 "http://www.w3.org/TR/2001/REC-SVG-20010904/DTD/svg10.dtd">
<svg version="1.0" xmlns="http://www.w3.org/2000/svg"
 width="512.000000pt" height="512.000000pt" viewBox="0 0 512.000000 512.000000"
 preserveAspectRatio="xMidYMid meet">

<g transform="translate(0.000000,512.000000) scale(0.100000,-0.100000)"
fill="#000000" stroke="none">
<path d="M2360 5053 c-414 -33 -830 -178 -1183 -413 -294 -195 -514 -417 -709
-714 -206 -315 -323 -630 -390 -1051 -16 -106 -16 -524 0 -630 40 -250 90
-438 169 -630 191 -468 508 -854 931 -1135 566 -377 1222 -503 1903 -365 462
94 938 357 1274 706 648 671 869 1643 576 2525 -148 447 -408 828 -776 1139
-180 151 -471 322 -701 409 -335 127 -747 187 -1094 159z m340 -33 c578 -40
1096 -259 1525 -647 84 -76 254 -257 187 -199 -12 11 -22 15 -22 9 0 -13 35
-45 42 -38 3 3 13 -5 24 -17 10 -12 13 -18 7 -14 -7 4 -13 3 -13 -2 0 -13 35
-43 42 -36 3 3 9 0 14 -7 4 -8 3 -10 -4 -5 -21 13 -13 -3 32 -61 147 -194 306
-521 371 -766 36 -134 30 -140 -10 -10 -71 230 -157 418 -301 655 -90 148
-114 177 -329 393 -128 128 -247 227 -397 329 -32 21 -55 43 -52 47 3 5 -1 6
-9 4 -7 -3 -25 5 -40 19 -14 13 -28 21 -31 18 -3 -3 -6 0 -6 7 0 7 -4 10 -9 7
-5 -4 -11 -2 -13 3 -3 8 -141 81 -153 81 -4 0 -4 -4 -1 -9 3 -5 -34 7 -83 27
-50 20 -88 39 -85 43 2 4 -6 5 -18 1 -13 -3 -19 -1 -15 5 5 7 -1 9 -15 5 -13
-3 -19 -1 -15 5 5 7 -1 9 -15 5 -16 -4 -19 -2 -13 8 5 9 4 11 -4 6 -16 -10
-64 2 -56 13 3 5 -4 7 -15 4 -12 -3 -20 0 -20 6 0 7 -4 9 -10 6 -5 -3 -16 -3
-22 2 -7 4 -17 8 -23 10 -5 1 -21 5 -35 8 -14 3 -34 7 -46 9 -11 2 -27 7 -34
11 -9 5 -11 4 -6 -3 9 -16 -7 -15 -22 0 -9 9 -12 9 -12 -1 0 -7 -4 -9 -10 -6
-9 6 -66 16 -105 19 -11 0 -23 6 -27 12 -4 6 -24 10 -45 9 -20 -2 -50 2 -65 7
-21 8 -33 7 -45 -3 -14 -12 -16 -12 -8 1 8 13 6 13 -7 2 -13 -10 -22 -11 -37
-2 -35 18 -343 3 -506 -26 -250 -44 -459 -111 -685 -220 -170 -82 -189 -85
-40 -5 323 171 679 268 1050 284 36 2 72 4 80 5 8 1 80 -3 160 -8z m-1410
-355 c0 -2 -10 -9 -22 -15 -22 -11 -22 -10 -4 4 21 17 26 19 26 11z m1647
-209 c597 -126 1083 -499 1354 -1038 164 -325 232 -736 184 -1100 -118 -895
-814 -1576 -1715 -1679 -128 -14 -377 -6 -510 17 -320 55 -601 176 -854 366
-481 361 -766 934 -766 1540 0 967 708 1774 1680 1914 65 9 160 12 300 9 172
-3 225 -8 327 -29z m1841 -821 c-3 -3 -9 2 -12 12 -6 14 -5 15 5 6 7 -7 10
-15 7 -18z m51 -110 c0 -5 -6 1 -14 15 -8 14 -14 30 -14 35 0 6 6 -1 14 -15 8
-14 14 -29 14 -35z m21 -50 c0 -5 -5 -3 -10 5 -5 8 -10 20 -10 25 0 6 5 3 10
-5 5 -8 10 -19 10 -25z m20 -50 c0 -5 -5 -3 -10 5 -5 8 -10 20 -10 25 0 6 5 3
10 -5 5 -8 10 -19 10 -25z m-4397 -1283 c8 -20 20 -57 26 -80 7 -23 16 -40 20
-38 4 3 22 -37 39 -90 42 -127 190 -424 249 -501 147 -191 226 -287 298 -363
44 -47 69 -76 55 -65 l-25 20 19 -23 c11 -12 21 -20 24 -17 3 2 32 -19 66 -49
128 -111 283 -217 427 -295 52 -28 91 -51 87 -51 -4 0 -47 18 -96 39 -89 39
-193 61 -285 61 -46 -1 -48 3 18 -46 11 -8 0 -3 -25 11 -25 14 -44 29 -43 35
2 5 -3 7 -10 4 -15 -5 -131 73 -237 162 -112 93 -226 217 -215 234 3 5 -3 15
-12 22 -10 7 -30 31 -45 53 -28 39 -28 40 -7 47 36 14 118 -2 142 -27 12 -12
45 -42 72 -65 28 -24 10 -2 -40 49 -99 102 -115 113 -213 142 -43 13 -75 30
-90 47 -19 21 -17 15 9 -33 18 -33 40 -71 49 -85 25 -38 32 -50 27 -50 -10 0
-146 208 -191 291 -43 80 -111 247 -103 255 1 2 16 -26 31 -62 39 -89 43 -76
5 17 -17 41 -28 85 -26 98 3 14 -2 43 -10 65 -15 43 -26 326 -13 326 5 0 15
-17 23 -38z m894 -1164 c51 -42 119 -95 153 -118 75 -51 215 -119 255 -124 17
-2 71 -22 120 -44 193 -88 439 -128 730 -119 287 8 526 61 781 172 162 70 164
71 134 46 -14 -11 -64 -39 -112 -63 -47 -23 -85 -45 -83 -49 10 -15 -242 -127
-346 -154 -173 -45 -488 -58 -705 -30 -431 57 -711 187 -1036 480 -97 87 -149
158 -61 83 21 -18 -2 11 -52 64 -49 53 -105 123 -123 155 -33 57 -32 56 110
-82 78 -77 184 -175 235 -217z m-113 -297 c153 -100 440 -240 601 -294 249
-82 480 -118 755 -117 227 1 216 2 202 -12 -18 -18 -426 -18 -547 0 -479 71
-898 264 -1215 562 l-65 61 85 -68 c47 -36 130 -96 184 -132z m563 -124 c98
-37 288 -84 419 -104 77 -12 176 -17 339 -17 127 -1 213 -2 192 -4 -20 -2 -35
-6 -33 -10 2 -4 -60 -5 -139 -4 -143 4 -251 -10 -346 -43 -32 -12 -47 -11
-100 1 -35 8 -70 13 -78 11 -9 -2 31 -13 89 -24 58 -12 94 -22 80 -22 -49 -1
-357 75 -346 86 2 2 36 -5 75 -17 l70 -22 65 26 c35 14 73 26 83 27 10 1 2 5
-17 10 -55 14 -138 12 -222 -5 -77 -16 -78 -16 -140 8 -35 13 -108 45 -162 71
-117 55 -114 67 14 62 61 -2 105 -11 157 -30z m59 13 c78 -27 226 -64 344 -87
76 -14 147 -18 357 -18 144 0 260 -1 259 -2 -1 -1 -65 -7 -142 -14 -157 -12
-376 -1 -525 27 -104 19 -399 114 -356 114 2 0 30 -9 63 -20z m-36 -145 c52
-18 90 -34 83 -35 -14 0 -183 60 -183 66 0 6 -2 7 100 -31z m770 -20 c0 -8
-165 -55 -195 -55 -28 0 -28 1 -10 14 30 20 114 44 163 45 23 1 42 -1 42 -4z
m-613 -31 c-3 -3 -12 -4 -19 -1 -8 3 -5 6 6 6 11 1 17 -2 13 -5z m120 -30 c-3
-3 -12 -4 -19 -1 -8 3 -5 6 6 6 11 1 17 -2 13 -5z m233 -4 c-11 -7 2 -10 45
-11 33 -1 51 -4 41 -6 -11 -3 -53 -1 -95 3 -70 7 -73 8 -36 15 60 9 61 9 45
-1z m-183 -6 c-3 -3 -12 -4 -19 -1 -8 3 -5 6 6 6 11 1 17 -2 13 -5z m120 -20
c-3 -3 -12 -4 -19 -1 -8 3 -5 6 6 6 11 1 17 -2 13 -5z m246 -1 c-13 -2 -33 -2
-45 0 -13 2 -3 4 22 4 25 0 35 -2 23 -4z m-160 -10 c-7 -2 -19 -2 -25 0 -7 3
-2 5 12 5 14 0 19 -2 13 -5z"/>
<path d="M4000 4536 c0 -2 8 -10 18 -17 15 -13 16 -12 3 4 -13 16 -21 21 -21
13z"/>
<path d="M4040 4506 c0 -2 8 -10 18 -17 15 -13 16 -12 3 4 -13 16 -21 21 -21
13z"/>
<path d="M4095 4460 c10 -11 20 -20 23 -20 3 0 -3 9 -13 20 -10 11 -20 20 -23
20 -3 0 3 -9 13 -20z"/>
<path d="M4160 4405 c13 -14 26 -25 28 -25 3 0 -5 11 -18 25 -13 14 -26 25
-28 25 -3 0 5 -11 18 -25z"/>
<path d="M4212 4362 c2 -4 44 -46 93 -92 l90 -84 -90 92 c-86 88 -101 102 -93
84z"/>
<path d="M2550 4203 c0 -16 -3 -45 -6 -65 -6 -35 -5 -38 16 -38 20 0 22 4 16
31 -3 17 -6 47 -6 65 0 19 -4 34 -10 34 -5 0 -10 -12 -10 -27z"/>
<path d="M2380 4147 c0 -32 9 -57 22 -57 14 0 5 73 -9 78 -8 2 -13 -6 -13 -21z"/>
<path d="M2716 4154 c-9 -24 -7 -64 3 -64 11 0 21 25 21 56 0 27 -15 32 -24 8z"/>
<path d="M2214 4123 c2 -10 7 -28 11 -40 10 -36 28 -28 21 8 -3 17 -6 35 -6
40 0 5 -7 9 -16 9 -10 0 -14 -6 -10 -17z"/>
<path d="M2877 4108 c-7 -47 4 -58 19 -17 16 45 16 49 0 49 -8 0 -16 -14 -19
-32z"/>
<path d="M2050 4091 c0 -19 23 -71 31 -71 12 0 11 22 -1 54 -9 24 -30 36 -30
17z"/>
<path d="M3047 4093 c-3 -5 -8 -23 -12 -40 -8 -38 10 -46 19 -9 3 13 9 31 12
40 6 16 -11 23 -19 9z"/>
<path d="M1890 4035 c0 -12 35 -75 42 -75 11 0 10 11 -3 49 -6 17 -17 31 -25
31 -8 0 -14 -2 -14 -5z"/>
<path d="M3191 4009 c-21 -60 -5 -70 22 -14 21 43 21 45 3 45 -8 0 -19 -14
-25 -31z"/>
<path d="M1722 4011 c-11 -6 -7 -20 18 -65 28 -50 60 -74 60 -46 0 9 -59 120
-63 120 -1 0 -8 -4 -15 -9z"/>
<path d="M3352 3966 c-36 -60 -39 -76 -17 -76 20 0 73 106 59 120 -6 6 -21 -9
-42 -44z"/>
<path d="M1600 3865 c0 -11 44 -65 52 -65 14 0 8 24 -11 48 -18 20 -41 30 -41
17z"/>
<path d="M3480 3839 c-12 -16 -20 -32 -17 -35 6 -6 47 45 47 57 0 16 -8 10
-30 -22z"/>
<path d="M1477 3763 c-4 -6 6 -25 22 -43 20 -25 30 -30 36 -21 5 8 -3 24 -23
43 -16 17 -32 26 -35 21z"/>
<path d="M3610 3740 c-29 -41 -21 -47 14 -11 16 17 23 31 18 35 -6 3 -20 -8
-32 -24z"/>
<path d="M1356 3642 c-8 -13 51 -65 64 -57 8 5 6 13 -7 27 -24 26 -50 40 -57
30z"/>
<path d="M3726 3621 c-15 -16 -24 -31 -19 -33 11 -5 66 49 55 56 -5 3 -21 -8
-36 -23z"/>
<path d="M1245 3511 c-6 -10 46 -51 64 -51 20 0 11 18 -18 39 -33 24 -37 25
-46 12z"/>
<path d="M3828 3497 c-30 -25 -35 -37 -15 -37 16 1 57 35 57 49 0 16 -12 13
-42 -12z"/>
<path d="M1107 3403 c-14 -13 -6 -22 48 -52 61 -35 75 -38 75 -17 0 8 -24 28
-54 45 -58 34 -60 34 -69 24z"/>
<path d="M3950 3380 c-25 -16 -49 -31 -54 -33 -5 -2 -6 -9 -2 -15 10 -16 126
47 119 65 -7 17 -11 16 -63 -17z"/>
<path d="M1080 3217 c0 -14 40 -37 65 -37 26 0 16 16 -20 33 -43 20 -45 21
-45 4z"/>
<path d="M3986 3206 c-17 -8 -24 -16 -18 -20 11 -6 72 19 72 29 0 8 -24 4 -54
-9z"/>
<path d="M1020 3056 c0 -8 11 -17 24 -20 13 -3 31 -9 40 -12 10 -4 16 -1 16 9
0 8 -14 20 -31 26 -42 14 -49 14 -49 -3z"/>
<path d="M4053 3058 c-34 -11 -45 -28 -19 -28 24 0 66 19 66 30 0 12 -4 11
-47 -2z"/>
<path d="M4085 2908 c-148 -31 -335 -71 -415 -88 -80 -16 -269 -56 -420 -89
-151 -32 -295 -62 -320 -65 l-45 -7 57 27 57 27 -16 31 c-8 17 -17 32 -18 34
-2 2 -358 -152 -377 -164 -4 -3 -54 37 -110 88 -166 149 -143 137 -183 98 -41
-40 -43 -37 78 -145 48 -43 84 -82 80 -86 -6 -6 -377 -89 -396 -89 -2 0 -2
-11 1 -25 5 -29 6 -29 92 -10 36 7 66 12 68 11 2 -3 -950 -429 -1100 -493 -56
-23 -68 -33 -74 -57 -4 -19 -1 -33 10 -44 14 -15 20 -14 63 7 45 22 183 84
1055 475 190 84 340 146 358 146 21 0 43 -12 73 -38 23 -21 201 -182 396 -358
194 -175 403 -365 465 -421 61 -56 116 -102 122 -103 5 0 25 15 43 34 l32 33
-500 449 c-274 247 -498 453 -497 458 3 12 -3 11 726 166 846 181 959 205 966
212 3 4 4 15 2 25 -3 18 -19 16 -273 -39z"/>
<path d="M975 2900 c-10 -16 -5 -18 43 -26 27 -4 42 -3 42 4 0 14 -8 18 -47
26 -19 5 -34 3 -38 -4z"/>
<path d="M950 2725 c0 -13 9 -16 43 -13 23 2 42 8 42 13 0 6 -19 11 -42 13
-34 3 -43 0 -43 -13z"/>
<path d="M4103 2733 c-22 -8 -14 -23 11 -23 31 0 56 10 56 21 0 9 -46 11 -67
2z"/>
<path d="M880 2560 c0 -20 5 -21 73 -18 56 2 72 6 72 18 0 12 -16 16 -72 18
-68 3 -73 2 -73 -18z"/>
<path d="M4100 2560 c0 -18 7 -20 70 -20 63 0 70 2 70 20 0 18 -7 20 -70 20
-63 0 -70 -2 -70 -20z"/>
<path d="M950 2395 c0 -13 9 -16 43 -13 23 2 42 8 42 13 0 6 -19 11 -42 13
-34 3 -43 0 -43 -13z"/>
<path d="M4090 2401 c0 -11 25 -21 56 -21 27 0 32 15 8 24 -24 9 -64 7 -64 -3z"/>
<path d="M993 2243 c-25 -5 -31 -21 -10 -28 18 -7 70 9 75 23 4 12 -20 14 -65
5z"/>
<path d="M4060 2241 c0 -5 9 -12 20 -15 11 -3 29 -9 40 -12 13 -3 20 -1 20 9
0 8 -14 17 -31 21 -42 8 -49 8 -49 -3z"/>
<path d="M1053 2088 c-29 -10 -47 -38 -24 -38 24 0 71 24 71 36 0 16 -3 16
-47 2z"/>
<path d="M4020 2082 c0 -12 68 -37 78 -28 10 10 -12 25 -46 32 -20 4 -32 2
-32 -4z"/>
<path d="M3960 1932 c0 -7 63 -42 75 -42 3 0 5 6 5 14 0 8 -14 19 -31 25 -38
13 -49 14 -49 3z"/>
<path d="M1162 1776 c-56 -30 -66 -40 -55 -60 7 -14 16 -11 66 21 31 20 57 42
57 49 0 19 -18 16 -68 -10z"/>
<path d="M3890 1786 c0 -8 24 -28 54 -45 62 -36 62 -36 69 -16 4 9 -12 24 -50
45 -64 34 -73 36 -73 16z"/>
<path d="M1266 1639 c-20 -15 -24 -25 -17 -32 12 -12 61 18 69 41 6 19 -23 14
-52 -9z"/>
<path d="M3800 1652 c0 -8 54 -52 65 -52 13 0 3 23 -17 41 -24 19 -48 25 -48
11z"/>
<path d="M1378 1517 c-30 -24 -37 -47 -15 -47 17 0 69 54 60 63 -10 10 -15 8
-45 -16z"/>
<path d="M3696 1531 c-8 -12 53 -63 66 -55 5 4 -2 19 -18 35 -29 31 -39 35
-48 20z"/>
<path d="M1497 1402 c-15 -15 -27 -33 -27 -40 0 -22 26 -12 49 19 31 42 14 58
-22 21z"/>
<path d="M3585 1421 c-5 -8 3 -24 23 -43 38 -39 50 -21 13 22 -20 25 -30 30
-36 21z"/>
<path d="M1620 1294 c-16 -24 -20 -38 -13 -45 7 -7 19 0 37 24 30 39 31 43 13
50 -7 3 -24 -10 -37 -29z"/>
<path d="M3460 1309 c0 -22 42 -71 52 -61 7 7 2 21 -13 41 -23 32 -39 40 -39
20z"/>
<path d="M1738 1178 c-29 -51 -33 -65 -22 -71 20 -11 28 -4 64 59 25 45 29 59
18 65 -21 13 -22 13 -60 -53z"/>
<path d="M3320 1219 c0 -17 60 -119 70 -119 22 0 19 25 -10 75 -28 50 -60 73
-60 44z"/>
<path d="M1904 1124 c-13 -30 -13 -38 -2 -45 9 -6 18 2 30 29 21 47 21 52 2
52 -8 0 -22 -16 -30 -36z"/>
<path d="M3180 1145 c0 -25 23 -65 37 -65 17 0 16 2 -4 45 -17 36 -33 46 -33
20z"/>
<path d="M2060 1074 c-14 -35 -12 -54 4 -54 8 0 17 11 20 24 3 13 9 31 12 40
4 11 1 16 -10 16 -9 0 -21 -12 -26 -26z"/>
<path d="M3024 1084 c3 -9 9 -27 12 -40 6 -22 34 -35 34 -15 0 25 -24 71 -37
71 -10 0 -13 -6 -9 -16z"/>
<path d="M2220 1046 c0 -7 -3 -28 -6 -45 -5 -24 -3 -31 9 -31 15 0 27 28 27
68 0 13 -6 22 -15 22 -8 0 -15 -6 -15 -14z"/>
<path d="M2874 1019 c8 -50 12 -57 27 -42 13 13 -2 75 -20 81 -11 4 -13 -5 -7
-39z"/>
<path d="M2386 1033 c-3 -3 -6 -24 -6 -45 0 -27 4 -38 15 -38 11 0 15 11 15
39 0 38 -10 57 -24 44z"/>
<path d="M2716 1033 c-3 -3 -6 -24 -6 -45 0 -27 4 -38 15 -38 11 0 15 11 15
39 0 38 -10 57 -24 44z"/>
<path d="M2547 1024 c-4 -4 -7 -38 -7 -76 0 -62 2 -68 20 -68 19 0 21 5 18 72
-3 65 -13 89 -31 72z"/>
<path d="M530 1596 c0 -11 30 -66 36 -66 2 0 -3 15 -12 33 -19 36 -24 44 -24
33z"/>
<path d="M595 1470 c9 -16 18 -30 21 -30 2 0 -2 14 -11 30 -9 17 -18 30 -21
30 -2 0 2 -13 11 -30z"/>
<path d="M630 1410 c6 -11 13 -20 16 -20 2 0 0 9 -6 20 -6 11 -13 20 -16 20
-2 0 0 -9 6 -20z"/>
<path d="M1100 1045 c13 -14 26 -25 28 -25 3 0 -5 11 -18 25 -13 14 -26 25
-28 25 -3 0 5 -11 18 -25z"/>
<path d="M960 985 c19 -19 36 -35 39 -35 3 0 -10 16 -29 35 -19 19 -36 35 -39
35 -3 0 10 -16 29 -35z"/>
<path d="M1229 1067 c30 -31 75 -70 100 -87 l46 -32 -36 34 c-20 18 -65 57
-100 87 l-64 55 54 -57z"/>
<path d="M2155 570 c19 -8 73 -14 64 -6 -2 2 -22 6 -44 9 -28 5 -34 4 -20 -3z"/>
<path d="M2243 553 c9 -2 23 -2 30 0 6 3 -1 5 -18 5 -16 0 -22 -2 -12 -5z"/>
<path d="M2303 543 c9 -2 23 -2 30 0 6 3 -1 5 -18 5 -16 0 -22 -2 -12 -5z"/>
<path d="M2233 433 c9 -2 23 -2 30 0 6 3 -1 5 -18 5 -16 0 -22 -2 -12 -5z"/>
<path d="M2303 423 c9 -2 25 -2 35 0 9 3 1 5 -18 5 -19 0 -27 -2 -17 -5z"/>
</g>
</svg>
