<?xml version="1.0" standalone="no"?>
<!DOCTYPE svg PUBLIC "-//W3C//DTD SVG 20010904//EN"
 "http://www.w3.org/TR/2001/REC-SVG-20010904/DTD/svg10.dtd">
<svg version="1.0" xmlns="http://www.w3.org/2000/svg"
 width="2064.000000pt" height="2360.000000pt" viewBox="0 0 2064.000000 2360.000000"
 preserveAspectRatio="xMidYMid meet">

<g transform="translate(0.000000,2360.000000) scale(0.100000,-0.100000)"
fill="#000000" stroke="none">
<path d="M11770 23584 c-314 -27 -502 -58 -744 -125 -449 -125 -921 -375
-1261 -669 -569 -492 -925 -1117 -1044 -1832 -53 -317 -53 -619 -1 -946 11
-67 20 -126 19 -130 0 -4 -12 29 -25 73 l-24 80 5 -85 c9 -155 71 -486 126
-670 82 -273 231 -569 395 -781 25 -33 45 -62 43 -64 -2 -1 -62 -29 -134 -60
-203 -89 -514 -245 -690 -345 -88 -51 -162 -94 -164 -96 -10 -9 38 -60 90 -96
136 -94 535 -227 774 -257 l90 -12 300 96 c165 53 554 180 865 281 311 102
693 225 850 274 544 169 544 170 35 45 -391 -96 -702 -180 -974 -263 l-190
-59 -28 23 c-16 13 -37 21 -48 18 -13 -3 -41 12 -83 44 -87 69 -271 233 -317
284 -21 24 -68 77 -105 118 -338 377 -604 911 -699 1403 -68 350 -73 728 -15
1077 145 871 708 1661 1514 2122 393 224 814 362 1290 420 139 17 612 17 750
0 435 -54 781 -157 1155 -347 856 -432 1461 -1198 1660 -2098 51 -234 60 -321
60 -632 0 -254 -3 -308 -23 -431 -41 -259 -105 -485 -203 -717 -72 -172 -115
-247 -142 -247 -15 0 -26 -10 -35 -29 -14 -31 -42 -41 -113 -41 l-39 0 16 25
c13 20 25 25 55 25 22 0 39 4 39 8 0 5 -27 7 -60 5 -58 -3 -65 -1 -186 63 -82
43 -121 69 -113 74 8 4 103 22 212 41 108 19 197 36 197 39 0 3 -76 44 -170
93 -134 69 -169 92 -172 110 -2 18 -7 14 -31 -27 -20 -36 -22 -45 -9 -33 10 9
25 17 33 17 21 -1 253 -127 243 -132 -5 -3 -95 -20 -200 -38 l-192 -33 -23
-40 -22 -40 24 16 c13 9 32 17 41 17 18 0 116 -47 226 -108 l53 -29 -108 -12
c-151 -17 -564 -76 -775 -111 -97 -17 -182 -30 -190 -30 -12 0 38 35 92 62 69
36 124 155 86 187 -10 9 -22 4 -51 -19 -21 -17 -49 -33 -63 -37 -35 -8 -112
-53 -112 -64 0 -6 -4 -7 -10 -4 -17 11 -11 39 20 85 16 25 30 49 30 53 0 12
-43 -14 -58 -35 -18 -25 -52 -24 -52 2 0 21 -10 26 -26 11 -19 -19 -126 -73
-132 -67 -3 4 2 22 11 42 16 32 16 37 2 51 -15 15 -29 14 -84 -3 -21 -6 -23
-5 -16 16 8 25 5 25 -87 4 -35 -8 -37 10 -6 43 20 21 20 24 5 41 -10 10 -17
24 -17 31 0 9 -6 11 -17 6 -66 -28 -82 -9 -37 44 14 18 19 29 11 25 -8 -3 -18
-1 -22 5 -6 11 24 43 83 88 17 14 32 31 32 39 0 15 30 34 54 34 13 0 13 -5 1
-41 -15 -41 -20 -109 -10 -109 4 0 19 7 34 15 16 8 31 12 33 9 3 -3 3 -25 0
-49 -4 -43 -4 -44 29 -53 24 -7 44 -5 68 4 45 19 53 18 46 -7 -6 -19 -3 -20
30 -18 20 2 39 -2 43 -8 5 -8 18 -8 47 3 30 10 41 10 47 1 5 -8 12 -7 25 5 10
9 29 16 43 15 14 0 32 2 40 4 9 2 14 -2 11 -11 -9 -36 -5 -45 19 -48 15 -2 30
-12 35 -24 6 -12 16 -23 23 -26 22 -7 14 79 -13 136 -32 69 -34 122 -4 122 17
0 20 4 15 23 -3 12 -6 30 -6 39 0 10 -14 34 -32 53 -31 36 -31 37 -14 66 41
69 39 139 -4 139 -17 0 -18 -3 -9 -18 16 -26 -5 -96 -38 -121 -36 -29 -99 -44
-158 -38 l-50 6 23 -19 c22 -18 22 -19 4 -29 -35 -18 -103 -25 -112 -11 -6 10
-15 10 -39 2 -36 -13 -46 -3 -43 40 2 22 -2 28 -18 28 -11 0 -20 5 -20 11 0
24 65 132 101 167 39 39 125 90 135 79 3 -3 24 1 46 9 22 7 50 11 62 8 12 -3
34 -1 48 5 19 7 28 7 30 -1 7 -21 57 1 74 34 13 24 15 46 10 98 -8 79 -8 78
87 110 67 22 89 42 70 61 -6 6 -29 1 -64 -16 -30 -13 -61 -25 -70 -25 -25 0
-69 -39 -69 -62 0 -17 -4 -19 -30 -13 -16 4 -30 3 -30 -2 0 -14 16 -34 26 -32
36 6 62 -3 66 -24 7 -35 -2 -51 -16 -31 -12 16 -18 14 -75 -16 -65 -35 -80
-35 -61 0 11 20 10 21 -9 11 -26 -15 -31 -14 -31 4 0 9 15 23 33 31 l32 15
-40 -5 c-22 -3 -47 -6 -55 -6 -13 0 -13 -1 0 -10 13 -8 13 -11 -2 -26 -9 -10
-32 -23 -50 -29 -18 -7 -42 -16 -53 -21 -19 -8 -20 -7 -2 19 9 15 13 27 8 27
-5 0 -13 -4 -16 -10 -3 -5 -23 -10 -44 -10 -32 0 -47 -8 -97 -55 -32 -30 -48
-49 -34 -42 14 6 38 25 53 41 21 21 32 25 40 17 8 -8 5 -17 -11 -34 -12 -13
-29 -44 -38 -70 -16 -48 -30 -59 -41 -31 -5 13 -10 11 -30 -13 l-24 -28 6 28
c3 15 2 27 -2 27 -3 0 -30 -16 -60 -37 -51 -35 -72 -59 -86 -96 -7 -19 3 -16
33 8 8 7 27 15 43 19 22 5 27 3 27 -11 0 -35 -12 -62 -25 -57 -15 6 -19 -7
-49 -138 -4 -16 -13 -28 -21 -28 -10 0 -12 9 -8 37 8 45 -5 39 -44 -22 -47
-75 -55 -52 -12 40 10 22 26 50 35 63 16 21 16 22 0 16 -24 -9 -112 -144 -99
-152 23 -15 23 -51 1 -96 -23 -49 -34 -57 -40 -28 -3 13 -8 9 -21 -15 -26 -49
-43 -41 -39 17 0 8 -4 18 -10 22 -8 4 -6 14 5 32 27 40 20 43 -17 7 -33 -32
-36 -33 -67 -21 -28 12 -33 12 -45 -5 -20 -27 -17 -35 10 -35 47 0 43 -40 -6
-66 -23 -12 -33 -13 -43 -4 -11 9 -22 7 -48 -9 -24 -15 -37 -17 -45 -9 -8 8
-20 5 -45 -11 -41 -25 -53 -18 -27 19 15 21 16 30 7 39 -17 17 5 29 66 37 42
6 105 39 94 50 -2 3 -33 -5 -68 -16 -82 -25 -87 -25 -95 5 -6 24 -10 25 -54
22 -56 -5 -79 -15 -59 -28 8 -4 24 -6 36 -3 22 6 22 6 6 -36 -18 -45 -37 -60
-55 -42 -9 9 -20 6 -45 -9 -37 -23 -53 -18 -53 17 0 13 -6 24 -13 24 -11 0
-127 -69 -146 -86 -9 -8 23 -34 43 -34 12 0 27 -5 32 -10 7 -7 28 -7 63 0 74
14 79 13 83 -12 2 -13 8 -22 13 -21 6 1 39 5 73 9 52 6 62 4 62 -9 0 -9 7 -22
15 -31 20 -19 49 -14 179 30 l99 34 -6 -35 c-6 -35 -6 -35 33 -35 21 0 50 4
63 9 21 8 26 6 30 -11 5 -16 11 -19 29 -14 13 3 39 9 59 12 34 6 36 4 45 -27
10 -34 11 -34 64 -32 l54 3 -39 -40 c-47 -49 -33 -60 49 -36 30 9 77 16 105
16 44 0 51 -3 51 -19 0 -11 5 -23 10 -26 6 -3 10 -17 10 -31 0 -20 5 -24 30
-24 17 0 60 14 97 30 36 17 69 30 73 30 5 0 12 -13 18 -28 l10 -28 -162 -28
c-88 -16 -341 -64 -560 -107 l-400 -78 -32 37 c-18 20 -30 39 -29 41 2 2 25
-4 51 -13 l46 -16 27 33 c68 84 146 149 264 222 172 106 172 116 0 59 -89 -29
-126 -48 -203 -104 -58 -42 -99 -65 -104 -59 -19 18 -35 8 -71 -46 -20 -30
-42 -55 -50 -55 -18 0 -85 58 -85 74 0 14 143 179 190 219 26 22 30 30 20 42
-10 12 -16 13 -39 1 -38 -20 -151 -123 -184 -168 -16 -21 -32 -38 -37 -38 -4
0 -146 142 -316 316 -169 174 -362 361 -429 416 -66 56 -185 165 -265 242 -80
78 -187 171 -238 206 -115 81 -299 193 -372 226 -30 14 -73 34 -95 44 -82 39
-96 42 -117 23 -27 -24 -52 -76 -72 -148 -9 -33 -24 -77 -33 -98 -9 -20 -13
-40 -10 -44 4 -3 10 3 14 13 10 27 100 174 120 196 9 10 22 18 29 18 7 0 52
-27 101 -59 48 -32 171 -112 273 -176 280 -177 379 -253 541 -414 81 -80 204
-200 274 -265 113 -106 492 -508 647 -687 l58 -66 -298 -65 c-278 -62 -298
-65 -316 -49 -10 9 -110 122 -221 251 -197 230 -379 416 -739 756 -99 93 -192
186 -207 207 -29 39 -132 129 -193 166 -45 28 -76 71 -76 105 0 39 -20 32 -87
-29 -68 -61 -122 -88 -212 -106 -45 -8 -62 -17 -67 -31 -3 -11 -4 -22 -1 -24
13 -13 69 -4 125 20 59 26 70 27 155 20 l92 -6 70 -72 c39 -39 92 -99 118
-134 38 -51 60 -69 113 -94 59 -28 73 -41 142 -132 128 -171 311 -346 360
-346 36 0 160 -140 277 -314 59 -87 111 -143 174 -185 67 -46 98 -78 85 -90
-5 -4 -145 -40 -311 -80 -166 -40 -446 -112 -622 -160 -365 -99 -339 -104
-232 44 43 59 63 80 79 79 12 0 22 0 22 1 0 1 -23 16 -51 34 -41 25 -49 28
-44 13 3 -13 -13 -47 -52 -103 -85 -127 -133 -189 -142 -189 -5 0 -16 -3 -25
-6 -13 -5 -16 1 -16 31 0 32 -3 36 -22 33 -28 -4 -35 -34 -13 -58 15 -17 14
-19 -27 -34 -30 -11 -34 -14 -13 -11 17 3 58 9 92 13 37 5 74 16 90 28 16 11
37 23 48 26 465 132 1180 313 1271 322 28 3 69 12 90 20 44 18 575 136 608
136 12 0 46 7 76 15 128 36 854 175 1295 249 441 74 946 142 965 131 6 -3 10
-14 10 -24 0 -14 -18 -19 -122 -30 -68 -7 -177 -21 -243 -30 l-120 -17 330 -2
c182 0 375 -5 430 -10 55 -5 102 -7 104 -6 2 2 -6 17 -17 35 l-20 32 35 76
c106 230 163 441 188 689 25 249 55 682 55 802 0 281 -52 606 -142 888 -282
885 -966 1611 -1866 1981 -289 119 -583 194 -922 236 -120 15 -506 27 -600 19z
m3422 -4139 l-19 -60 -7 71 c-7 60 -4 85 16 155 l23 84 3 -95 c2 -71 -2 -110
-16 -155z m-1472 19 c13 -32 13 -27 -10 -54 -19 -22 -22 -22 -37 -7 -15 15
-18 14 -36 -9 -18 -23 -21 -24 -37 -9 -11 10 -20 12 -24 6 -4 -5 -19 -9 -34
-9 -15 1 -38 -4 -50 -11 -30 -16 -28 -2 9 49 29 39 33 42 44 26 11 -14 13 -15
19 -1 3 8 16 15 29 15 13 0 32 7 43 15 32 24 73 19 84 -11z m1374 -287 c18
-13 18 -15 -2 -60 -12 -26 -23 -47 -26 -47 -3 0 -6 27 -6 60 0 63 4 69 34 47z
m-94 -149 l0 -103 -37 38 -38 38 34 64 c19 36 36 65 38 65 2 0 3 -46 3 -102z"/>
<path d="M11859 23326 c-97 -25 -149 -95 -149 -200 0 -69 25 -124 76 -163 29
-21 50 -28 99 -31 75 -5 124 9 156 45 l24 27 -29 -22 c-61 -46 -144 -49 -205
-6 -36 26 -61 90 -61 162 0 112 43 171 131 180 64 6 107 -14 138 -66 l22 -37
-5 34 c-3 18 -6 47 -6 64 0 29 -1 29 -19 13 -14 -13 -24 -15 -38 -8 -32 17
-87 20 -134 8z"/>
<path d="M12194 23318 c19 -15 19 -19 4 -149 -18 -152 -16 -178 19 -213 34
-35 85 -49 154 -44 100 7 119 37 144 227 10 75 21 121 32 133 15 17 14 18 -22
18 -31 0 -35 -2 -26 -14 9 -11 8 -42 -4 -134 -18 -140 -29 -178 -57 -193 -65
-35 -131 -32 -173 7 -22 20 -25 32 -25 85 0 109 21 240 42 261 17 17 17 18
-11 18 -16 0 -44 3 -62 6 -32 6 -33 5 -15 -8z"/>
<path d="M12723 23240 c9 -6 17 -18 17 -27 0 -22 -90 -306 -102 -320 -6 -7
-20 -13 -32 -14 -16 0 29 -18 99 -39 1 0 -1 15 -3 33 -1 17 5 57 16 87 16 46
23 55 43 55 21 0 28 -12 65 -109 38 -102 43 -111 75 -122 50 -18 55 -17 30 10
-13 14 -38 64 -56 113 l-34 88 35 7 c19 5 44 13 55 19 26 13 47 63 41 95 -9
49 -55 73 -252 131 -10 3 -9 1 3 -7z m141 -54 c65 -27 67 -120 4 -152 -39 -20
-118 -11 -118 13 0 9 10 47 22 85 24 74 32 79 92 54z"/>
<path d="M10909 23122 c-110 -40 -124 -48 -105 -57 15 -7 39 -55 84 -168 55
-135 62 -160 50 -174 -7 -9 -8 -14 -2 -12 5 2 67 24 137 49 l127 45 0 50 -1
50 -13 -38 c-8 -20 -19 -43 -25 -51 -14 -17 -126 -58 -147 -54 -14 3 -74 125
-74 152 0 13 87 46 123 46 14 0 31 -8 37 -17 13 -20 12 -16 -12 51 l-11 28
-21 -25 c-19 -22 -121 -67 -129 -56 -14 17 -56 143 -50 149 14 13 123 50 145
50 12 0 30 -8 41 -17 19 -18 20 -18 3 15 -9 17 -20 32 -24 31 -4 0 -64 -22
-133 -47z"/>
<path d="M13225 23052 c6 -36 -130 -302 -162 -318 -21 -10 -19 -12 28 -32 45
-19 49 -19 44 -4 -3 10 11 50 30 90 33 69 35 71 58 61 19 -9 26 -23 36 -77 30
-161 28 -156 79 -181 l47 -23 -24 26 c-16 17 -30 53 -42 108 -26 118 -26 118
22 118 51 0 75 13 94 51 13 24 14 37 5 64 -12 37 -41 59 -151 111 l-68 33 4
-27z m115 -47 c38 -20 53 -49 46 -90 -11 -59 -62 -84 -132 -65 -24 7 -44 17
-44 22 0 4 16 40 35 78 37 74 47 80 95 55z"/>
<path d="M10440 22910 c-37 -19 -48 -29 -34 -30 28 0 40 -15 130 -168 67 -115
76 -137 66 -153 -8 -12 30 3 115 48 71 36 129 67 130 68 1 0 0 18 -4 39 l-6
37 -17 -39 c-14 -31 -30 -45 -83 -72 -54 -29 -68 -32 -80 -21 -9 7 -50 71 -92
143 -55 92 -76 137 -72 154 2 13 4 24 3 24 0 -1 -26 -14 -56 -30z"/>
<path d="M13683 22832 c24 -26 21 -32 -101 -190 -83 -108 -98 -123 -119 -119
-14 2 -21 1 -16 -3 20 -17 232 -160 238 -160 3 0 23 12 43 26 20 15 28 23 17
19 -60 -21 -79 -17 -143 25 -34 23 -62 48 -62 56 0 14 90 143 100 144 3 0 28
-17 55 -38 39 -30 50 -44 50 -65 -1 -15 0 -27 1 -27 1 0 17 18 34 41 l32 40
-26 -7 c-21 -5 -39 2 -82 30 -35 24 -52 41 -48 49 23 37 88 117 96 117 18 0
127 -82 133 -100 3 -9 3 -26 -1 -36 -4 -14 -1 -13 15 6 11 14 21 28 21 31 0 3
-57 45 -127 94 -71 48 -120 78 -110 67z"/>
<path d="M10184 22746 c-23 -13 -69 -45 -103 -72 -48 -39 -57 -50 -41 -52 10
-2 63 -54 118 -115 118 -135 132 -155 124 -175 -7 -19 105 66 165 125 38 37
43 48 43 87 0 37 -5 48 -31 70 -32 27 -67 33 -99 16 -18 -10 -19 -7 -13 38 5
45 3 50 -27 75 -40 34 -81 35 -136 3z m81 -22 c18 -7 45 -55 45 -80 0 -20 -84
-104 -103 -104 -7 0 -35 25 -62 56 -54 63 -53 72 5 112 32 21 82 28 115 16z
m130 -140 c35 -16 54 -52 47 -91 -3 -23 -86 -103 -106 -103 -12 0 -116 116
-116 130 0 10 63 58 92 70 33 13 46 12 83 -6z"/>
<path d="M11575 22710 c-16 -4 -55 -8 -85 -9 -75 -2 -124 -17 -187 -57 -41
-26 -64 -34 -98 -34 -25 0 -92 -15 -148 -34 -81 -26 -110 -41 -143 -73 -23
-22 -70 -54 -105 -70 -35 -17 -83 -45 -106 -62 -43 -31 -43 -31 -43 -96 0 -63
-1 -65 -35 -87 -69 -45 -20 -49 60 -4 40 21 40 22 37 76 -1 33 3 61 10 70 27
32 80 70 99 70 25 0 126 65 139 90 14 26 37 37 130 65 l79 22 35 -23 c49 -34
72 -30 120 17 53 54 90 69 191 76 110 8 117 -4 41 -74 -31 -29 -51 -53 -44
-53 7 0 40 9 74 19 33 11 93 23 132 27 65 6 72 5 72 -11 0 -16 7 -17 55 -11
49 5 55 4 55 -12 0 -11 -9 -27 -20 -37 -27 -24 -25 -39 3 -31 104 30 181 46
227 46 30 0 73 7 95 15 53 19 91 19 99 -1 6 -16 -14 -39 -78 -87 -45 -35 -42
-43 7 -22 20 8 52 15 71 15 19 0 38 5 41 11 11 17 57 30 109 31 27 0 60 7 72
15 20 13 26 12 53 -2 17 -8 31 -20 31 -25 0 -5 -21 -24 -47 -42 -44 -30 -46
-33 -24 -36 13 -2 43 1 67 7 46 12 162 15 188 5 9 -3 16 -14 16 -24 0 -15 -11
-20 -57 -25 -127 -14 -135 -45 -11 -45 62 0 88 -4 112 -19 17 -11 60 -25 96
-31 112 -21 171 -60 93 -60 l-38 -1 42 -37 c55 -49 69 -78 46 -91 -12 -6 -26
-5 -47 6 -21 11 -43 13 -81 8 -54 -6 -79 6 -73 36 2 10 -19 16 -79 23 -58 7
-83 13 -83 23 0 18 -67 17 -166 -2 -99 -19 -118 -35 -42 -35 42 0 73 -8 120
-30 34 -16 76 -30 91 -30 15 0 58 -15 95 -34 114 -58 292 -78 367 -41 51 25
57 62 22 126 -14 24 -28 58 -31 74 -10 43 -46 79 -99 100 -36 13 -49 24 -54
44 -7 30 -20 41 -48 41 -11 0 -26 9 -33 20 -7 12 -23 20 -41 20 -16 0 -31 6
-34 15 -7 16 -87 58 -132 69 -16 4 -36 13 -44 19 -40 34 -175 54 -253 39 -37
-7 -52 -6 -68 5 -39 27 -80 32 -205 22 -109 -8 -130 -7 -157 7 -17 9 -58 19
-90 22 -32 2 -61 9 -64 13 -3 5 -34 9 -69 9 -61 0 -65 2 -80 29 -29 56 -72 71
-150 51z"/>
<path d="M14024 22590 c9 -13 16 -34 16 -45 0 -24 -227 -255 -250 -255 -9 0
-21 5 -28 10 -7 6 -9 6 -4 1 4 -4 27 -26 52 -47 25 -21 37 -29 28 -18 -10 11
-18 24 -18 29 0 9 201 215 210 215 3 0 0 -71 -7 -157 -6 -87 -12 -180 -12
-208 l-1 -50 133 133 c130 130 157 148 185 120 7 -7 12 -9 12 -6 0 3 -20 22
-44 41 -39 32 -43 34 -39 14 3 -17 -19 -44 -97 -122 l-101 -100 5 45 c3 25 11
112 17 194 l11 149 -42 41 c-25 24 -36 31 -26 16z"/>
<path d="M9855 22479 c-28 -28 -40 -46 -28 -40 20 10 30 5 90 -48 37 -32 97
-88 132 -124 51 -52 63 -70 58 -88 -5 -18 1 -15 34 17 l39 38 -24 11 c-13 5
-77 61 -141 123 -100 95 -117 116 -113 137 3 14 5 25 4 25 -1 0 -24 -23 -51
-51z"/>
<path d="M11435 22439 c-33 -5 -80 -9 -104 -9 -25 -1 -80 -15 -132 -35 -49
-19 -94 -35 -101 -35 -7 1 7 19 32 41 l45 41 -40 -7 c-51 -9 -148 -56 -205
-99 -51 -39 -110 -97 -110 -108 0 -3 26 1 58 11 75 24 212 45 223 34 12 -12
242 3 270 18 13 6 46 31 72 55 43 39 89 60 172 79 27 7 28 8 10 15 -25 11
-112 10 -190 -1z"/>
<path d="M12020 22410 c-30 -3 -109 -22 -175 -42 -66 -20 -145 -41 -176 -46
-31 -6 -76 -20 -100 -31 -23 -12 -51 -21 -60 -21 -10 0 -21 -4 -24 -10 -4 -6
41 -10 127 -10 111 1 140 4 173 20 22 11 49 20 60 20 11 0 38 14 60 31 22 16
77 41 124 55 58 18 80 29 70 35 -8 5 -16 8 -19 7 -3 0 -30 -4 -60 -8z"/>
<path d="M12261 22329 c-41 -10 -95 -32 -121 -49 -47 -30 -97 -43 -72 -18 34
34 -4 37 -97 7 -129 -41 -129 -42 17 -50 72 -5 167 -14 210 -20 105 -17 149
-15 216 10 31 11 76 21 99 22 50 1 138 30 134 44 -2 12 -246 14 -291 3 -45
-11 -45 0 -1 37 l40 34 -30 0 c-16 0 -63 -9 -104 -20z"/>
<path d="M9706 22313 c3 -13 -7 -25 -35 -41 -135 -76 -140 -258 -9 -348 37
-26 50 -29 118 -29 69 0 81 3 119 29 46 32 91 92 109 143 11 32 10 33 -53 83
-35 28 -65 60 -67 72 -3 17 -10 12 -47 -33 -24 -30 -38 -48 -31 -41 8 6 21 12
30 12 25 0 140 -90 140 -110 0 -27 -42 -81 -80 -102 -70 -38 -183 -7 -252 70
-69 77 -72 156 -8 217 28 27 38 30 96 30 61 0 63 1 42 16 -12 9 -34 24 -49 33
-25 15 -27 15 -23 -1z"/>
<path d="M14303 22181 c-142 -36 -214 -174 -148 -287 24 -41 90 -93 102 -80 4
3 1 6 -5 6 -21 0 -72 62 -82 101 -15 53 0 95 48 141 69 67 162 99 225 79 83
-28 121 -123 79 -195 l-21 -36 50 37 c43 33 47 38 30 45 -13 4 -22 21 -27 44
-7 40 -61 107 -103 129 -35 18 -108 26 -148 16z"/>
<path d="M10817 22159 c-39 -20 -41 -23 -51 -71 -4 -15 -20 -43 -37 -63 -38
-43 -31 -44 26 -5 26 18 48 43 56 63 6 18 26 43 44 57 22 16 29 28 22 32 -16
10 -16 10 -60 -13z"/>
<path d="M11680 22125 c-14 -8 -41 -20 -60 -26 -61 -20 -170 -99 -188 -135 -8
-19 -13 -36 -11 -39 8 -7 103 40 119 60 7 9 53 44 102 77 48 33 88 64 88 69 0
13 -21 10 -50 -6z"/>
<path d="M10421 22044 c-40 -37 -61 -64 -61 -78 0 -13 -17 -47 -38 -77 -34
-48 -40 -65 -50 -147 -6 -51 -18 -102 -26 -114 -16 -23 -19 -86 -7 -143 4 -21
13 -31 29 -33 28 -4 28 -13 -8 -160 -39 -161 -41 -332 -4 -332 8 0 22 -16 31
-35 14 -30 15 -45 5 -117 -11 -74 -10 -87 7 -133 10 -27 31 -88 46 -135 36
-109 50 -133 129 -208 46 -44 72 -62 91 -62 35 0 65 17 65 37 0 14 5 12 28 -8
62 -57 102 -81 116 -70 10 8 22 8 40 1 15 -5 47 -10 71 -10 l44 0 -25 57 c-20
45 -23 62 -15 80 6 13 16 23 22 23 6 0 39 -20 73 -44 49 -35 64 -41 78 -33 13
9 21 7 36 -6 26 -24 41 -21 54 11 7 15 13 29 15 31 2 3 28 -19 57 -48 50 -49
55 -52 77 -39 13 7 28 19 34 26 9 11 25 -4 75 -69 93 -120 176 -212 208 -228
15 -8 54 -22 86 -32 58 -18 61 -18 105 2 81 36 145 114 156 193 9 60 -11 61
-32 1 -17 -50 -28 -61 -88 -96 -93 -53 -126 -40 -292 121 -87 83 -113 116
-128 155 -20 53 -55 109 -116 187 -64 81 -81 145 -77 273 4 121 15 151 100
283 57 87 92 104 229 110 119 5 189 -11 227 -51 18 -19 55 -131 77 -230 3 -15
13 -31 23 -34 30 -11 52 -35 52 -59 0 -29 29 -104 40 -104 14 0 30 94 18 101
-18 11 53 81 76 75 11 -3 28 2 39 11 16 15 19 15 27 3 8 -13 12 -13 32 -1 24
16 98 24 98 12 0 -5 -9 -16 -20 -26 -11 -10 -20 -28 -20 -41 0 -25 -79 -124
-95 -120 -5 1 -11 12 -13 24 -4 28 -11 27 -53 -1 -40 -27 -51 -77 -23 -108 22
-25 20 -53 -10 -126 -32 -78 -32 -94 0 -123 19 -19 23 -30 18 -50 -7 -28 -13
-78 -18 -158 -2 -29 -13 -83 -24 -120 -11 -37 -25 -89 -31 -117 -7 -27 -19
-57 -27 -66 -8 -8 -14 -25 -14 -37 0 -18 6 -22 30 -22 40 0 40 -31 1 -68 -43
-40 -71 -103 -71 -161 l0 -50 35 6 c41 7 43 2 13 -38 -20 -27 -23 -43 -23
-134 l0 -103 25 5 c25 4 27 2 39 -62 15 -76 36 -93 83 -69 32 17 78 73 72 89
-3 7 2 18 11 25 12 10 13 15 4 20 -8 5 3 26 32 66 31 40 45 52 47 41 2 -10 13
-17 26 -17 20 0 23 -5 23 -40 0 -48 7 -57 28 -40 19 16 20 50 0 50 -11 0 -13
7 -9 29 5 24 2 32 -17 42 -13 7 -28 14 -34 15 -5 0 -14 2 -18 2 -5 1 0 14 10
30 27 40 19 85 -17 99 -24 9 -32 8 -46 -8 -16 -18 -16 -19 14 -19 25 0 32 -4
32 -20 0 -25 -90 -120 -114 -120 -10 0 -37 -12 -62 -26 -53 -31 -56 -20 -9 36
19 23 35 44 35 46 0 2 -11 2 -25 -2 -30 -7 -28 4 13 74 l24 43 -26 -7 c-31 -7
-33 4 -6 39 11 14 20 32 20 40 0 17 68 77 87 77 21 0 15 -17 -18 -55 -25 -28
-28 -35 -14 -35 13 0 16 -6 12 -21 -4 -14 -2 -18 3 -13 11 11 45 138 55 207 6
37 3 53 -11 75 -10 15 -21 52 -24 82 l-5 55 -17 -50 c-16 -46 -16 -51 -1 -68
10 -11 17 -36 17 -65 1 -40 -2 -48 -19 -50 -11 -2 -33 -21 -48 -43 -35 -50
-62 -48 -42 3 5 13 2 15 -14 11 -31 -8 -26 11 19 62 36 42 39 48 25 62 -9 8
-22 12 -30 9 -21 -7 -19 18 3 51 9 15 17 36 18 48 1 11 5 29 9 40 8 17 7 18
-7 7 -9 -7 -19 -9 -22 -4 -8 14 20 96 48 141 28 43 45 52 47 24 1 -22 27 35
44 97 7 25 16 53 20 63 5 12 2 17 -8 17 -8 0 -27 -20 -41 -45 -15 -25 -31 -45
-36 -45 -12 0 -12 6 -1 50 5 19 11 54 14 78 4 36 2 43 -11 41 -33 -3 -34 1 -8
32 28 33 32 53 16 95 -8 21 -7 31 6 45 23 25 34 24 35 -3 0 -13 22 40 49 117
26 77 58 167 70 200 18 48 21 72 15 118 -6 53 -3 63 24 112 26 46 29 60 24
104 -3 30 -15 64 -29 83 -13 17 -24 44 -24 59 0 14 -7 32 -15 39 -35 29 -7 92
65 144 33 24 58 52 70 78 14 32 33 49 90 83 67 39 74 47 92 96 11 30 19 62 19
72 0 29 -71 132 -103 150 -30 17 -38 8 -12 -17 37 -38 40 -135 4 -192 -9 -17
-45 -44 -82 -63 -53 -28 -72 -33 -101 -27 -29 5 -48 1 -98 -25 -51 -25 -70
-30 -105 -25 -31 4 -45 1 -55 -10 -7 -8 -21 -20 -31 -25 -15 -8 -20 -5 -28 16
-12 31 -27 32 -56 4 -43 -41 -54 1 -34 131 9 55 16 69 43 92 17 14 29 30 25
34 -18 18 -146 -43 -270 -127 -58 -40 -83 -7 -48 61 12 23 19 44 17 46 -8 8
-163 -62 -212 -96 -26 -18 -80 -49 -119 -70 l-72 -36 -17 22 c-23 30 -22 34
13 82 32 45 26 51 -27 31 -35 -13 -168 -103 -209 -141 -26 -25 -33 -27 -43
-14 -8 9 -10 28 -5 51 7 37 6 37 -17 25 -13 -7 -34 -22 -47 -33 -28 -26 -38
-16 -47 43 -6 41 -3 51 29 98 29 43 32 54 20 59 -19 7 -140 -40 -189 -72 -30
-21 -122 -55 -147 -55 -4 0 -5 14 -1 30 5 25 2 30 -14 30 -19 0 -135 -78 -148
-100 -6 -10 -88 -50 -102 -50 -14 0 7 96 32 143 15 29 36 76 47 105 11 30 34
69 50 88 46 53 18 40 -51 -22z m809 -538 c0 -8 -4 -26 -10 -40 -9 -23 -7 -26
15 -26 13 0 36 5 52 11 23 9 30 7 44 -9 14 -18 21 -19 70 -9 30 5 62 16 71 24
17 15 82 22 94 10 10 -10 -56 -81 -98 -106 -35 -21 -40 -21 -60 -7 -32 22 -44
20 -94 -16 l-44 -32 -30 35 c-16 19 -29 37 -30 42 -1 18 -23 3 -72 -49 -29
-31 -68 -78 -86 -105 -18 -27 -38 -49 -43 -49 -5 0 -9 16 -9 35 0 19 -5 35
-10 35 -25 0 -76 -36 -147 -102 -88 -81 -91 -79 -95 31 -2 39 -6 71 -9 71 -4
0 -23 -18 -43 -40 -20 -22 -38 -40 -40 -40 -3 0 -8 21 -12 48 -8 54 -16 62
-64 61 -32 0 -37 -4 -60 -52 -38 -78 -66 -73 -84 15 -6 25 -8 27 -26 15 -17
-10 -22 -9 -30 3 -19 29 -8 160 13 160 5 0 25 11 43 25 37 28 44 30 44 13 0
-7 5 -20 10 -28 8 -12 12 -11 32 7 13 12 36 27 52 32 l28 11 -4 -40 c-3 -36
-1 -41 21 -47 13 -3 32 -1 43 6 10 6 27 17 38 23 16 10 24 10 38 0 35 -25 43
-24 95 12 41 28 151 76 174 76 3 0 3 -17 2 -37 -4 -47 5 -47 111 7 80 42 110
49 110 26z m645 -71 c7 -44 7 -44 34 -31 46 24 134 47 144 37 5 -5 4 -18 -3
-32 -15 -27 -19 -99 -6 -99 5 0 38 14 73 31 48 23 67 29 76 20 6 -6 26 -11 43
-11 44 0 48 -11 23 -54 -18 -31 -19 -39 -8 -52 11 -14 9 -20 -14 -40 l-28 -24
50 0 c27 0 53 -5 56 -10 11 -18 -5 -48 -38 -69 -27 -17 -29 -21 -14 -27 22 -8
10 -24 -50 -66 -48 -32 -69 -28 -75 15 -3 23 -10 24 -73 16 -28 -4 -30 -2 -33
34 -4 43 -6 43 -87 18 -33 -10 -63 -17 -67 -14 -5 2 -8 33 -8 69 l0 64 -31 0
-31 0 4 60 c2 33 1 60 -2 60 -4 0 -40 -11 -80 -25 -40 -14 -75 -25 -77 -25 -2
0 -3 12 -3 27 0 47 144 169 202 172 12 1 19 -11 23 -44z m-1348 -482 c20 -42
33 -58 47 -56 10 1 30 -12 44 -28 22 -27 70 -59 88 -59 3 0 4 12 1 27 -5 27
10 73 24 73 5 0 19 -15 31 -34 13 -18 37 -45 55 -60 l32 -27 7 38 c17 96 72
146 84 78 5 -28 8 -30 47 -27 l41 2 7 -46 c9 -61 14 -74 31 -74 7 0 21 -11 29
-24 13 -20 14 -34 5 -87 -5 -35 -10 -67 -10 -71 0 -20 -36 -4 -79 37 -32 30
-57 45 -75 45 -14 0 -26 5 -26 10 0 6 -7 13 -15 17 -23 8 -44 -26 -45 -70 0
-34 -2 -37 -19 -27 -13 7 -20 7 -23 -1 -6 -19 -35 1 -68 48 -33 45 -34 46 -42
22 -6 -15 -5 -52 1 -98 6 -41 10 -75 8 -77 -7 -8 -97 110 -97 127 0 25 -77
179 -90 179 -20 0 -39 -48 -49 -124 -6 -44 -13 -81 -14 -83 -2 -1 -18 10 -36
25 -43 36 -82 144 -86 235 -2 67 5 83 24 50 11 -20 13 -16 26 40 5 25 9 28 35
22 25 -5 31 -2 45 24 8 17 20 31 25 31 5 0 22 -26 37 -57z"/>
<path d="M11120 22055 c-18 -19 -31 -38 -27 -41 8 -8 65 33 77 57 18 32 -12
23 -50 -16z"/>
<path d="M12233 22045 c-29 -12 -52 -49 -39 -62 6 -6 67 42 79 63 10 17 1 17
-40 -1z"/>
<path d="M9386 21933 c-15 -32 -15 -35 -1 -23 13 11 34 4 145 -50 71 -35 127
-66 125 -69 -3 -3 -91 -22 -197 -43 -105 -20 -192 -39 -193 -40 -1 -2 -10 -17
-19 -35 l-16 -32 33 13 c31 13 37 11 184 -60 120 -58 152 -78 155 -95 3 -18 7
-15 27 20 22 40 22 42 3 30 -18 -11 -38 -4 -156 52 -75 35 -136 66 -136 69 0
3 89 23 198 44 108 22 205 42 215 45 12 5 -34 31 -149 85 -91 44 -173 90 -183
102 l-18 23 -17 -36z"/>
<path d="M14643 21905 c0 -14 -22 -62 -48 -108 -27 -45 -56 -94 -64 -109 -18
-31 -128 -84 -159 -76 -16 5 -16 1 7 -42 23 -44 26 -46 36 -27 16 33 112 76
170 76 78 1 216 -17 231 -30 24 -20 22 -6 -9 46 -16 28 -26 43 -24 34 3 -9 0
-22 -6 -28 -12 -12 -120 -14 -179 -3 l-37 7 53 85 c42 69 57 85 74 83 22 -3
22 -2 6 28 -9 17 -24 45 -34 61 l-17 29 0 -26z"/>
<path d="M14283 21803 c9 -2 23 -2 30 0 6 3 -1 5 -18 5 -16 0 -22 -2 -12 -5z"/>
<path d="M13204 21777 c-3 -9 5 -30 19 -49 43 -57 88 -146 103 -200 19 -71 18
-78 -10 -78 -66 0 -226 -73 -205 -94 3 -3 30 3 60 13 73 25 187 35 216 18 51
-29 160 -138 186 -184 15 -28 32 -74 37 -103 9 -49 8 -54 -20 -95 -51 -74 -52
-85 -18 -151 17 -33 68 -103 114 -157 70 -83 84 -105 94 -151 9 -44 22 -67 67
-117 65 -73 78 -101 99 -212 9 -45 18 -85 20 -89 3 -4 17 0 31 9 23 15 25 22
21 69 -4 45 -17 73 -97 200 -51 81 -95 160 -98 176 -3 15 -42 71 -87 124 -120
142 -139 170 -139 203 0 17 13 49 29 72 26 38 29 50 29 118 0 60 -5 85 -24
121 -35 68 -88 128 -155 177 -54 40 -64 53 -103 140 -42 92 -120 220 -149 244
-11 9 -15 8 -20 -4z"/>
<path d="M13145 21551 c-42 -5 -52 -10 -63 -34 -8 -16 -11 -31 -8 -34 6 -6
143 53 161 68 10 10 -9 10 -90 0z"/>
<path d="M9538 21384 c-13 -13 -62 -20 -222 -33 -113 -9 -208 -20 -211 -23 -3
-3 66 -65 154 -137 87 -73 162 -140 166 -149 6 -13 10 -8 21 22 8 22 12 42 9
44 -3 3 -5 0 -5 -6 0 -23 -45 -11 -83 21 l-37 32 26 78 26 77 63 0 c58 0 64
-2 67 -22 2 -14 10 1 25 45 11 37 20 67 19 67 -1 0 -9 -7 -18 -16z m-178 -82
c0 -4 -9 -36 -21 -70 -14 -43 -25 -60 -33 -54 -29 17 -134 107 -131 110 2 3
39 8 82 12 43 4 84 8 91 9 6 0 12 -3 12 -7z"/>
<path d="M13285 21189 c-33 -11 -69 -29 -80 -39 -11 -9 -51 -30 -90 -45 -38
-15 -95 -41 -125 -58 -65 -36 -65 -36 -58 -42 8 -9 98 13 153 37 48 21 79 26
256 43 l76 8 35 -36 c20 -19 38 -41 40 -47 6 -19 58 29 58 53 0 42 -27 110
-49 129 -32 25 -137 24 -216 -3z"/>
<path d="M11541 21094 c-101 -30 -168 -92 -193 -180 -14 -49 -13 -164 2 -164
4 0 11 26 14 58 13 109 70 191 159 226 32 13 49 11 97 -11 14 -6 37 -14 51
-17 19 -4 29 -16 39 -47 13 -39 13 -43 -4 -53 -105 -61 -157 -116 -69 -72 26
14 65 27 85 31 34 5 38 3 44 -20 6 -26 18 -32 29 -16 3 5 1 29 -5 53 -5 24
-12 55 -15 70 -3 15 -31 54 -63 87 -64 65 -99 76 -171 55z"/>
<path d="M8992 20938 c-18 -83 -29 -155 -25 -158 4 -4 20 -10 36 -14 l28 -7
-22 22 c-17 17 -20 30 -16 66 2 24 8 47 11 51 4 3 84 -9 177 -27 125 -25 176
-39 189 -53 17 -19 18 -18 25 28 3 25 9 54 13 62 3 10 -2 8 -16 -6 -11 -11
-29 -19 -39 -17 -10 3 -79 16 -153 30 -202 40 -183 31 -176 79 8 49 30 76 65
77 25 1 25 2 -4 9 -61 16 -58 20 -93 -142z"/>
<path d="M13407 21023 c-4 -3 -7 -14 -7 -24 0 -24 -4 -26 -118 -48 -55 -11
-117 -29 -139 -41 l-38 -21 40 6 c139 20 135 20 135 -8 0 -31 42 -83 58 -73 6
4 17 34 24 67 10 48 17 63 35 70 18 7 23 16 23 44 0 36 -2 40 -13 28z"/>
<path d="M12815 20895 c-5 -2 -23 -6 -38 -9 -17 -4 -25 -11 -21 -18 7 -12 199
-7 211 6 14 14 -23 26 -82 25 -33 0 -64 -2 -70 -4z"/>
<path d="M12930 20815 c-36 -20 -76 -47 -90 -61 l-25 -25 30 11 c86 32 203
110 164 110 -8 0 -43 -16 -79 -35z"/>
<path d="M13152 20838 c3 -7 39 -29 81 -51 l76 -38 3 -52 c3 -44 5 -49 14 -32
6 11 14 37 18 57 l7 38 -95 45 c-104 49 -110 51 -104 33z"/>
<path d="M13050 20811 c0 -5 -3 -16 -6 -25 -4 -11 3 -19 22 -26 15 -6 50 -27
77 -46 73 -52 79 -36 8 21 -33 28 -64 58 -67 68 -5 17 -34 24 -34 8z"/>
<path d="M11695 20749 c-33 -16 -66 -29 -75 -29 -20 0 -117 -66 -129 -88 -5
-9 -12 -51 -16 -92 -7 -72 -6 -76 22 -112 15 -20 39 -54 53 -74 14 -21 48 -62
76 -91 43 -45 56 -53 88 -53 30 0 40 5 55 31 33 54 45 148 31 239 -18 116 -21
119 -106 85 -77 -30 -99 -47 -121 -88 -18 -35 -13 -41 20 -26 39 18 54 6 75
-63 30 -97 35 -138 19 -138 -17 0 -73 59 -81 86 -4 12 -29 46 -56 75 -50 54
-50 54 -50 122 0 65 2 71 34 103 21 21 44 34 60 34 30 0 32 -9 10 -51 -8 -17
-13 -33 -11 -36 8 -7 80 32 98 53 25 29 72 121 68 133 -2 5 -30 -3 -64 -20z"/>
<path d="M12221 20531 c-12 -23 -18 -40 -12 -37 13 8 25 -36 19 -69 -6 -29 0
-32 18 -7 14 18 16 77 5 127 l-7 30 -23 -44z"/>
<path d="M9338 20526 c-11 -15 -70 -46 -165 -86 -81 -34 -168 -71 -193 -82
l-45 -19 195 -76 c135 -52 202 -83 219 -101 17 -19 23 -21 18 -9 -4 10 -7 32
-7 48 0 26 -2 28 -19 17 -15 -9 -28 -7 -67 9 l-49 19 -3 81 -3 81 53 20 c57
21 74 20 81 -6 3 -10 5 16 6 56 0 39 0 72 -1 72 -2 0 -11 -11 -20 -24z m-129
-233 c1 -20 -4 -33 -11 -33 -21 0 -169 62 -163 68 3 3 40 20 83 38 l77 32 7
-36 c4 -21 7 -52 7 -69z"/>
<path d="M13133 20328 c-38 -40 -102 -97 -142 -127 -72 -52 -73 -52 -67 -25 9
34 -3 194 -14 194 -15 0 -37 -104 -33 -150 4 -36 -5 -75 -41 -181 -48 -140
-60 -204 -27 -138 29 59 80 127 99 133 10 4 28 27 40 52 18 36 26 44 36 35 10
-9 19 -2 40 29 15 23 38 45 52 50 13 5 27 18 31 27 4 10 24 38 44 63 35 42 64
98 56 107 -2 2 -35 -29 -74 -69z"/>
<path d="M13492 20315 c-60 -28 -83 -66 -80 -135 1 -27 -5 -47 -18 -63 -96
-109 -119 -138 -150 -190 -41 -71 -32 -100 12 -39 50 67 171 192 187 192 9 0
19 -5 23 -11 12 -20 75 -40 105 -34 35 8 38 25 5 25 -30 0 -62 39 -76 91 -12
43 2 89 45 145 14 18 25 35 25 38 0 12 -26 5 -78 -19z"/>
<path d="M14682 20152 c-15 -67 -15 -70 2 -47 11 15 18 17 34 10 36 -17 153
-119 145 -126 -13 -13 -162 -69 -183 -69 -10 0 -23 7 -28 16 -7 12 -11 2 -17
-41 -4 -32 -9 -65 -13 -74 -3 -9 3 -7 14 6 10 13 72 45 137 71 l118 49 71 -12
c38 -7 74 -18 79 -26 11 -18 16 -11 24 38 6 39 5 41 -14 36 -12 -3 -50 -2 -86
2 -64 6 -68 9 -160 86 -52 45 -98 92 -103 107 -8 25 -10 24 -20 -26z"/>
<path d="M13642 20160 c-18 -11 -37 -32 -42 -46 -12 -31 -12 -37 -2 -30 5 3
41 7 81 10 81 6 124 22 129 49 8 38 -110 51 -166 17z"/>
<path d="M12169 20103 c-1 -5 -1 -11 0 -15 0 -4 -4 -19 -9 -33 -9 -24 -8 -25
10 -15 21 11 29 70 10 70 -5 0 -11 -3 -11 -7z"/>
<path d="M13628 19760 c-9 -6 -61 -22 -115 -36 -115 -29 -146 -49 -63 -39 30
4 73 11 95 16 22 5 57 9 78 9 34 0 37 2 37 30 0 32 -5 35 -32 20z"/>
<path d="M14598 19727 c11 -13 9 -22 -14 -56 -53 -80 -30 -195 49 -252 150
-108 346 -28 347 141 0 39 -29 110 -45 110 -2 0 4 -15 15 -32 25 -41 25 -71 0
-125 -26 -59 -69 -83 -147 -83 -114 0 -216 57 -229 128 -15 77 30 142 112 161
22 5 30 9 18 10 -12 1 -43 4 -70 8 -44 6 -48 5 -36 -10z"/>
<path d="M9560 19403 c0 -16 -29 -34 -156 -92 -162 -74 -181 -79 -203 -58 -7
6 0 -14 15 -45 26 -53 28 -55 38 -35 7 14 61 44 156 88 150 70 177 78 199 57
7 -7 1 12 -14 42 -33 66 -35 69 -35 43z"/>
<path d="M9593 19165 c-45 -19 -53 -42 -53 -150 0 -124 -15 -155 -73 -155 -43
0 -64 16 -82 64 -19 50 -15 73 22 116 l25 30 -55 -32 c-41 -25 -51 -35 -41
-43 7 -5 18 -29 24 -52 23 -90 102 -139 175 -109 51 22 65 62 62 179 -2 81 1
98 17 116 27 29 62 26 97 -8 36 -36 39 -89 8 -133 l-21 -29 50 28 c28 15 45
29 37 31 -8 2 -20 22 -26 44 -15 57 -34 84 -74 102 -40 19 -51 19 -92 1z"/>
<path d="M9880 18619 c-125 -49 -186 -68 -212 -66 l-37 2 22 -23 c12 -13 29
-28 39 -33 13 -7 15 -5 11 10 -3 14 7 23 46 39 27 12 53 22 58 22 4 -1 34 -25
66 -55 l59 -54 -22 -47 c-24 -56 -37 -66 -62 -53 -30 16 -21 5 35 -43 52 -45
53 -45 49 -19 -2 18 21 85 68 197 40 93 74 175 77 182 8 20 -13 13 -197 -59z
m96 -54 c-18 -41 -35 -78 -39 -81 -3 -3 -29 15 -56 42 -28 26 -49 50 -45 53 9
10 137 59 156 60 14 1 11 -11 -16 -74z"/>
<path d="M2510 18606 c-138 -30 -247 -86 -344 -177 -75 -70 -124 -157 -158
-279 -21 -78 -23 -104 -22 -330 0 -202 4 -270 22 -389 49 -311 130 -662 288
-1236 129 -470 220 -835 244 -985 35 -216 28 -206 80 -124 25 38 87 125 139
194 507 676 1035 1000 2501 1530 140 51 266 97 280 102 22 8 11 16 -125 87
-273 141 -527 311 -1140 767 -656 487 -924 654 -1227 768 -200 74 -400 101
-538 72z"/>
<path d="M9145 15734 c-513 -39 -810 -93 -1268 -231 l-188 -56 38 -40 c47 -48
238 -175 443 -294 450 -261 552 -321 692 -409 923 -580 1473 -1174 1823 -1968
252 -574 386 -1101 550 -2171 124 -813 168 -1008 272 -1220 33 -67 96 -155
112 -155 4 0 42 109 84 243 435 1384 612 2678 501 3667 -94 843 -390 1501
-869 1932 -432 390 -943 611 -1580 684 -127 14 -511 26 -610 18z"/>
<path d="M3015 13386 c-203 -64 -397 -305 -461 -573 -23 -93 -23 -234 0 -300
24 -71 68 -128 117 -154 34 -17 56 -20 113 -17 107 5 188 48 296 157 117 119
191 251 237 423 22 84 22 247 -1 308 -52 138 -167 198 -301 156z"/>
<path d="M5090 12244 c-94 -20 -185 -70 -255 -139 -109 -107 -159 -226 -158
-375 0 -145 48 -258 157 -366 107 -106 220 -154 366 -154 144 0 259 49 365
155 108 108 155 219 155 371 0 45 -7 104 -16 135 -55 186 -214 335 -401 374
-83 18 -129 18 -213 -1z"/>
<path d="M495 8575 c-116 -62 -140 -164 -139 -580 0 -299 15 -489 59 -777 51
-328 101 -501 215 -733 140 -287 320 -505 416 -505 64 0 92 76 115 305 23 230
0 532 -65 861 -19 99 -51 294 -71 434 -77 551 -105 698 -150 794 -21 44 -36
61 -68 77 -22 12 -77 46 -123 76 -92 61 -141 74 -189 48z"/>
<path d="M1660 7639 c-49 -20 -93 -63 -117 -115 -36 -78 -70 -226 -90 -386
-25 -204 -25 -763 0 -925 84 -538 433 -1146 743 -1294 90 -42 243 -67 316 -50
92 20 131 72 149 196 25 179 -43 570 -186 1078 -128 451 -148 541 -175 802
-29 283 -45 337 -122 421 -53 58 -267 219 -341 257 -57 29 -128 35 -177 16z"/>
</g>
</svg>
